<svg
    viewBox="0 0 28 28"
    fill="none"
    xmlns="http://www.w3.org/2000/svg"
>
    <path
        d="M2.33331 14L1.55244 13.3753L1.05269 14L1.55244 14.6247L2.33331 14ZM12.8333 15C13.3856 15 13.8333 14.5522 13.8333 14C13.8333 13.4477 13.3856 13 12.8333 13V15ZM6.21911 7.54193L1.55244 13.3753L3.11418 14.6247L7.78085 8.79132L6.21911 7.54193ZM1.55244 14.6247L6.21911 20.458L7.78085 19.2086L3.11418 13.3753L1.55244 14.6247ZM2.33331 15H12.8333V13H2.33331V15Z"
        fill="currentColor"
    />
    <path
        d="M15.0091 23.8904L14.8447 24.8768L15.0091 23.8904ZM12.1406 22.9319L12.9037 22.2855L12.1406 22.9319ZM18.6803 24.5023L18.5159 25.4887L18.6803 24.5023ZM24.6058 24.4144L23.9594 23.6514L24.6058 24.4144ZM24.6058 3.5857L25.2522 2.82268L24.6058 3.5857ZM15.1735 5.09603L18.8447 4.48417L18.5159 2.51138L14.8447 3.12325L15.1735 5.09603ZM24.6667 9.41614V18.5839H26.6667V9.41614H24.6667ZM18.8447 23.5159L15.1735 22.904L14.8447 24.8768L18.5159 25.4887L18.8447 23.5159ZM12.6667 9.4873V8.05522H10.6667V9.4873H12.6667ZM12.6667 19.9449V18.7437H10.6667V19.9449H12.6667ZM15.1735 22.904C14.35 22.7668 13.824 22.6773 13.4393 22.5628C13.0814 22.4562 12.9676 22.361 12.9037 22.2855L11.3776 23.5782C11.7876 24.0622 12.3099 24.3133 12.8686 24.4796C13.4006 24.638 14.0719 24.748 14.8447 24.8768L15.1735 22.904ZM10.6667 19.9449C10.6667 20.7284 10.6649 21.4085 10.7336 21.9593C10.8059 22.5378 10.9676 23.0943 11.3776 23.5782L12.9037 22.2855C12.8397 22.21 12.7645 22.0821 12.7182 21.7115C12.6685 21.3133 12.6667 20.7797 12.6667 19.9449H10.6667ZM24.6667 18.5839C24.6667 20.2584 24.6643 21.407 24.544 22.2546C24.4276 23.0745 24.2234 23.4278 23.9594 23.6514L25.2522 25.1774C26.0491 24.5023 26.3753 23.5843 26.5242 22.5356C26.6691 21.5146 26.6667 20.1973 26.6667 18.5839H24.6667ZM18.5159 25.4887C20.1073 25.7539 21.4063 25.9729 22.4372 25.9978C23.4961 26.0233 24.4552 25.8525 25.2522 25.1774L23.9594 23.6514C23.6955 23.8749 23.3134 24.0183 22.4855 23.9983C21.6297 23.9777 20.4964 23.7912 18.8447 23.5159L18.5159 25.4887ZM18.8447 4.48417C20.4964 4.20889 21.6297 4.02241 22.4855 4.00174C23.3134 3.98174 23.6955 4.12514 23.9594 4.34872L25.2522 2.82268C24.4552 2.14755 23.4961 1.97674 22.4372 2.00232C21.4063 2.02723 20.1073 2.24614 18.5159 2.51138L18.8447 4.48417ZM26.6667 9.41614C26.6667 7.80278 26.6691 6.48549 26.5242 5.46446C26.3753 4.41576 26.0491 3.4978 25.2522 2.82268L23.9594 4.34872C24.2234 4.57229 24.4276 4.92563 24.544 5.74552C24.6643 6.59308 24.6667 7.74166 24.6667 9.41614H26.6667ZM14.8447 3.12325C14.0719 3.25205 13.4006 3.36208 12.8686 3.52046C12.3099 3.68681 11.7876 3.93787 11.3776 4.42184L12.9037 5.71459C12.9676 5.63906 13.0814 5.54387 13.4393 5.43731C13.824 5.3228 14.35 5.23328 15.1735 5.09603L14.8447 3.12325ZM12.6667 8.05522C12.6667 7.22037 12.6685 6.68679 12.7182 6.28854C12.7645 5.91798 12.8397 5.79011 12.9037 5.71459L11.3776 4.42184C10.9676 4.9058 10.8059 5.46226 10.7336 6.04075C10.6649 6.59154 10.6667 7.27172 10.6667 8.05522H12.6667Z"
        fill="currentColor"
    />
</svg>
