<svg viewBox="0 0 26 26" fill="none" xmlns="http://www.w3.org/2000/svg">
    <path
        d="M2.16675 7.25C2.16675 5.36438 2.16675 4.42157 2.75253 3.83579C3.33832 3.25 4.28113 3.25 6.16675 3.25H19.8334C21.719 3.25 22.6618 3.25 23.2476 3.83579C23.8334 4.42157 23.8334 5.36438 23.8334 7.25V7.75C23.8334 8.69281 23.8334 9.16421 23.5405 9.45711C23.2476 9.75 22.7762 9.75 21.8334 9.75H4.16675C3.22394 9.75 2.75253 9.75 2.45964 9.45711C2.16675 9.16421 2.16675 8.69281 2.16675 7.75V7.25Z"
        fill="currentColor"/>
    <path d="M5.21193 21.8713C4.33325 20.9927 4.33325 19.5784 4.33325 16.75V11.9167H21.6666V16.75C21.6666 19.5784 21.6666 20.9927 20.7879 21.8713C19.9092 22.75 18.495 22.75 15.6666 22.75H10.3333C7.50482 22.75 6.09061 22.75 5.21193 21.8713ZM10.8333 16.3334C10.281 16.3334 9.83325 16.7811 9.83325 17.3334C9.83325 17.8856 10.281 18.3334 10.8333 18.3334H15.1666C15.7189 18.3334 16.1666 17.8856 16.1666 17.3334C16.1666 16.7811 15.7189 16.3334 15.1666 16.3334H10.8333Z"
          fill="#a1a1aa"/>
</svg>
