<svg viewBox="0 0 26 26" fill="none" xmlns="http://www.w3.org/2000/svg">
    <path d="M22.7499 15.1667V13C22.7499 9.93589 22.7499 8.40383 21.798 7.45192C20.9627 6.61663 19.6807 6.51431 17.3088 6.50177L14.116 9.69456L14.0595 9.75128C13.8299 9.98223 13.5821 10.2315 13.2554 10.3668C12.9287 10.5021 12.5772 10.5011 12.2515 10.5002L12.1715 10.5H6.49992H1.08325L1.08326 15.1667C1.08326 18.2308 1.08326 19.7629 2.03517 20.7148C2.98707 21.6667 4.51913 21.6667 7.58324 21.6667H7.58326H16.2499H16.2499C19.3141 21.6667 20.8461 21.6667 21.798 20.7148C22.7499 19.7629 22.7499 18.2308 22.7499 15.1667ZM1.08325 9.00002H6.49992H12.1715C12.3869 9.00002 12.5072 8.99952 12.5975 8.99266C12.6377 8.98961 12.6596 8.98601 12.6709 8.98367C12.6762 8.98256 12.6791 8.98174 12.6801 8.98142L12.6814 8.98099L12.6826 8.98039C12.6835 8.97988 12.6861 8.97845 12.6907 8.97546C12.7003 8.96917 12.7184 8.95617 12.749 8.9299C12.8176 8.87093 12.9031 8.78619 13.0554 8.6339L15.1893 6.50002H15.1666H14.339C13.0971 6.50002 12.7012 6.20103 12.4562 5.47955C12.4162 5.36177 12.3962 5.30287 12.383 5.27143C12.3699 5.23999 12.3527 5.2055 12.3182 5.13653L12.031 4.56209C11.4482 3.39661 11.1569 2.81387 10.6333 2.49028C10.1097 2.16669 9.45817 2.16669 8.15512 2.16669H5.4166C3.37384 2.16669 2.35247 2.16669 1.71787 2.80129C1.08329 3.43586 1.08329 3.79165 1.08326 6.49964L1.08326 6.50002L1.08325 8.9568L1.08325 9.00002Z"
          fill="#a1a1aa"/>
    <path
        d="M1 5.23146V8.46164V9H13.1154L13.6923 8.46164L16 6.30818H14.8462C13.9026 6.22715 13.4912 6.02775 13.1154 5.23146L11.9615 3.078C11.4594 2.22113 10.796 1.97993 9.07692 2.00128H3.88461C2.76286 2.04742 1.09984 2.15427 1 4.15473V5.23146Z"
        fill="currentColor"/>
</svg>
