<svg viewBox="0 0 26 26" fill="none" xmlns="http://www.w3.org/2000/svg">
    <path d="M16.0734 11.9403L22.7501 8.12502L21.5378 6.10454C21.2967 5.70264 20.8088 5.52214 20.3641 5.67036L18.3391 6.34536C18.0464 6.44294 17.725 6.3999 17.4682 6.22873L16.6106 5.657C16.3806 5.50368 16.2243 5.262 16.1789 4.98935L15.8477 3.00229C15.7674 2.5201 15.3502 2.16669 14.8613 2.16669H11.1389C10.6501 2.16669 10.2329 2.5201 10.1525 3.00229L9.82135 4.98935C9.77591 5.262 9.61965 5.50368 9.38966 5.657L8.53207 6.22873C8.27531 6.3999 7.9539 6.44294 7.66115 6.34536L5.62207 5.66567C5.18387 5.5196 4.70265 5.69266 4.45784 6.08435L2.63856 8.9952C2.36961 9.42553 2.46561 9.98907 2.86186 10.3061L4.49983 11.6164C4.73704 11.8062 4.87513 12.0935 4.87513 12.3973V13.6027C4.87513 13.9065 4.73704 14.1938 4.49983 14.3836L2.84924 15.7041C2.45839 16.0167 2.35892 16.5702 2.61644 16.9994L3.7918 18.9584L10.5275 15.1094C10.0427 14.5417 9.75005 13.805 9.75005 13C9.75005 11.2051 11.2051 9.75 13.0001 9.75C14.4239 9.75 15.634 10.6657 16.0734 11.9403Z"
          fill="currentColor"/>
    <path d="M22.7501 8.125L23.3249 8.98716C23.6126 9.41875 23.5225 9.9987 23.1175 10.3227L21.5004 11.6164C21.2632 11.8062 21.1251 12.0935 21.1251 12.3973V13.6027C21.1251 13.9065 21.2632 14.1938 21.5004 14.3836L23.1384 15.694C23.5346 16.011 23.6306 16.5745 23.3617 17.0048L21.5424 19.9157C21.2976 20.3074 20.8163 20.4804 20.3781 20.3344L18.3391 19.6547C18.0463 19.5571 17.7249 19.6001 17.4681 19.7713L16.6106 20.343C16.3806 20.4963 16.2243 20.738 16.1789 21.0107L15.8477 22.9977C15.7673 23.4799 15.3501 23.8333 14.8613 23.8333H11.1389C10.65 23.8333 10.2328 23.4799 10.1525 22.9977L9.82131 21.0107C9.77586 20.738 9.6196 20.4963 9.38961 20.343L8.52601 19.7673C8.27267 19.5984 7.95617 19.5541 7.6662 19.647L5.62724 20.3003C5.21872 20.4312 4.77223 20.2869 4.51751 19.9418L3.79175 18.9583L10.5275 15.1094C11.1236 15.8074 12.0101 16.25 13 16.25C14.7949 16.25 16.25 14.7949 16.25 13C16.25 12.629 16.1878 12.2724 16.0733 11.9403L22.7501 8.125Z"
          fill="#a1a1aa"/>
</svg>
