<svg viewBox="0 0 26 26" fill="none" xmlns="http://www.w3.org/2000/svg">
    <path
        d="M11.3394 8.58665C11.3594 8.32615 11.5767 8.125 11.8379 8.125H12.0058C12.2626 8.125 12.4777 8.31965 12.5033 8.57525L12.9999 13.5417L16.5397 15.5644C16.6954 15.6534 16.7916 15.8191 16.7916 15.9985V16.137C16.7916 16.4667 16.4781 16.7062 16.16 16.6194L11.2319 15.2754C11.0005 15.2123 10.8465 14.9938 10.8649 14.7547L11.3394 8.58665Z"
        fill="currentColor"/>
    <path
        d="M6.66447 1.47293C6.40036 1.15818 5.89042 1.27865 5.79509 1.67831L4.54035 6.9387C4.46267 7.26435 4.72074 7.57285 5.05499 7.55391L10.4664 7.24725C10.8773 7.22397 11.0857 6.74194 10.8211 6.42666L9.47774 4.82565C10.4242 4.50224 11.4278 4.33333 12.4583 4.33333C17.5439 4.33333 21.6666 8.45604 21.6666 13.5417C21.6666 18.6273 17.5439 22.75 12.4583 22.75C7.37263 22.75 3.24992 18.6273 3.24992 13.5417C3.24992 12.6879 3.36553 11.8517 3.59096 11.0481L1.50481 10.4629C1.23015 11.4421 1.08325 12.4747 1.08325 13.5417C1.08325 19.8239 6.17601 24.9167 12.4583 24.9167C18.7405 24.9167 23.8333 19.8239 23.8333 13.5417C23.8333 7.25942 18.7405 2.16666 12.4583 2.16666C10.8781 2.16666 9.37313 2.48887 8.00557 3.07118L6.66447 1.47293Z"
        fill="#a1a1aa"/>
</svg>
