<svg viewBox="0 0 26 26" fill="none" xmlns="http://www.w3.org/2000/svg">
    <path
        d="M6.49976 2.36365H2C0.895431 2.36365 0 3.25908 0 4.36365V24C0 25.1046 0.89543 26 2 26H24C25.1046 26 26 25.1046 26 24V4.36365C26 3.25908 25.1046 2.36365 24 2.36365H19.4998V2.95455C19.4998 3.9336 18.4084 4.72727 17.0623 4.72727H8.93726C7.59106 4.72727 6.49976 3.9336 6.49976 2.95455V2.36365Z"
        fill="#a1a1aa"/>
    <path
        d="M14.6253 1.18182C14.6253 0.529118 13.8977 0 13.0003 0C12.1028 0 11.3753 0.529116 11.3753 1.18182H8.625C8.34886 1.18182 8.125 1.40567 8.125 1.68182V3.04545C8.125 3.32159 8.34886 3.54545 8.625 3.54545H17.375C17.6511 3.54545 17.875 3.32159 17.875 3.04545V1.68182C17.875 1.40567 17.6511 1.18182 17.375 1.18182L14.6253 1.18182Z"
        fill="currentColor"/>
    <rect x="4.875" y="10.6364" width="8.125" height="2.36364" rx="1.18182" fill="currentColor"/>
    <rect x="4.875" y="15.3636" width="14.625" height="2.36364" rx="1.18182" fill="currentColor"/>
</svg>
