<svg width="140" height="94" viewBox="0 0 140 94" fill="none" xmlns="http://www.w3.org/2000/svg">
<path fill-rule="evenodd" clip-rule="evenodd" d="M37 8.5L86.5 4L82.5 16L85 41L93 67L107.5 29L109 14.5L105.5 6H134.5L126.5 14.5L104 89L70 91L76.5 81.5V69L73.5 67L41 69C37.8 74.6 39 80 40 82L41 87.5H5.5L15.5 81.5L42.5 26.5L43.5 16L37 8.5ZM64 25L48 58.5L72 56L64 25Z" fill="#FABB18"/>
<path d="M103.5 5.5L138 5C128.54 10.8445 124.887 16.6246 121.5 31.5L104.5 89.5L67 91.5C76.4302 86.6823 77.9937 81.0302 74.5 66L41 70C36.1765 76.8991 37.651 80.7223 44 87.5L1 89.5C11.158 86.662 17.6665 77.5569 30.5 50C42.8413 23.5 48.0397 16.5966 34.5 7.5C57.1278 8.98742 69.7036 7.55186 92 2C77.6774 7.44718 82.2234 26.9712 93.5 69C106.697 33.2199 113.446 13.4693 103.5 5.5Z" stroke="black" stroke-width="4" stroke-linejoin="bevel"/>
</svg>
