<?xml version="1.0" standalone="no"?>
<!DOCTYPE svg PUBLIC "-//W3C//DTD SVG 20010904//EN"
 "http://www.w3.org/TR/2001/REC-SVG-20010904/DTD/svg10.dtd">
<svg version="1.0" xmlns="http://www.w3.org/2000/svg"
 width="1128.000000pt" height="1128.000000pt" viewBox="0 0 1128.000000 1128.000000"
 preserveAspectRatio="xMidYMid meet">
<metadata>
Created by potrace 1.14, written by Peter Selinger 2001-2017
</metadata>
<g transform="translate(0.000000,1128.000000) scale(0.100000,-0.100000)"
fill="#000000" stroke="none">
<path d="M7230 9368 c-69 -16 -133 -31 -143 -33 -10 -2 -27 -7 -37 -10 -10 -3
-27 -8 -37 -10 -10 -2 -46 -10 -80 -18 -35 -9 -63 -13 -63 -10 0 3 -6 1 -12
-4 -7 -6 -20 -11 -28 -11 -8 0 -51 -9 -95 -20 -44 -11 -93 -23 -110 -26 -56
-10 -90 -17 -110 -23 -11 -3 -29 -7 -40 -9 -11 -2 -31 -6 -45 -9 -14 -3 -34
-8 -45 -10 -11 -2 -31 -6 -45 -9 -14 -4 -37 -8 -52 -11 -16 -3 -40 -7 -55 -10
-16 -3 -39 -7 -53 -10 -14 -4 -38 -8 -55 -11 -16 -2 -50 -9 -75 -14 -25 -5
-112 -21 -195 -34 -82 -14 -166 -27 -185 -31 -19 -3 -55 -8 -80 -11 -25 -2
-56 -7 -69 -9 -22 -4 -62 -9 -146 -20 -16 -2 -56 -7 -88 -10 -32 -4 -67 -8
-78 -10 -11 -2 -52 -7 -92 -10 -39 -3 -88 -8 -107 -10 -19 -2 -75 -7 -125 -10
-49 -4 -110 -8 -135 -10 -271 -24 -1440 -26 -1440 -3 0 4 -13 3 -29 -2 -16 -4
-32 -6 -34 -3 -3 2 -45 6 -94 8 -139 6 -301 16 -322 20 -25 5 -58 -27 -70 -67
-5 -18 -26 -80 -46 -138 -47 -136 -44 -152 37 -205 34 -22 66 -44 72 -50 6 -6
40 -33 76 -62 76 -60 160 -147 216 -224 161 -220 167 -479 21 -904 -64 -186
-81 -229 -92 -237 -5 -4 -7 -8 -3 -8 6 0 -39 -113 -77 -195 -32 -69 -75 -167
-75 -170 0 -4 -32 -74 -115 -250 -75 -160 -114 -243 -140 -300 -16 -33 -31
-62 -34 -65 -3 -3 -7 -9 -8 -15 -1 -5 -28 -66 -61 -135 -32 -69 -71 -150 -85
-180 -89 -191 -111 -238 -165 -352 -34 -70 -71 -149 -83 -175 -12 -26 -55
-117 -95 -201 -40 -84 -73 -153 -73 -155 1 -3 -356 -706 -389 -767 -17 -30
-46 -84 -65 -120 -19 -36 -52 -94 -72 -130 -21 -36 -48 -83 -59 -105 -12 -22
-24 -42 -27 -45 -3 -3 -14 -21 -24 -40 -10 -19 -21 -37 -24 -40 -3 -3 -15 -21
-25 -40 -34 -62 -228 -355 -237 -358 -5 -2 -9 -10 -9 -17 0 -7 -3 -15 -7 -17
-5 -1 -37 -41 -73 -88 -81 -107 -85 -111 -145 -178 -71 -79 -186 -192 -231
-227 -21 -16 -45 -37 -54 -45 -36 -35 -230 -155 -230 -143 0 4 -4 2 -8 -5 -9
-14 -140 -70 -227 -98 -59 -18 -87 -46 -81 -79 2 -11 7 -40 10 -65 3 -25 8
-56 10 -70 3 -14 8 -43 11 -65 4 -22 8 -47 10 -55 2 -8 4 -22 4 -30 1 -21 49
-47 81 -44 22 2 109 6 410 19 52 2 149 7 215 10 204 10 276 14 400 19 66 3
174 8 240 12 66 3 161 7 210 9 226 10 504 23 645 30 58 3 150 8 205 10 133 5
330 14 435 20 47 3 146 7 220 10 240 10 321 15 330 20 5 3 11 1 15 -5 4 -6 11
-7 17 -4 6 4 24 8 40 9 17 2 36 9 44 16 11 12 101 216 107 244 2 6 5 15 8 20
3 6 4 16 3 23 -1 6 -2 18 -3 25 -1 6 -25 37 -54 67 -69 72 -160 182 -207 250
-13 19 -27 37 -30 40 -18 15 -77 135 -100 202 -29 85 -32 187 -8 257 6 20 13
41 14 47 4 21 83 179 101 201 18 22 50 29 178 39 22 1 40 3 40 4 0 2 32 6 105
14 36 3 76 8 90 11 14 3 48 7 75 9 28 3 109 12 180 21 72 9 150 18 175 21 25
2 61 7 80 9 19 3 59 8 88 10 29 3 67 7 84 10 17 3 50 8 72 10 54 5 133 14 176
20 19 3 51 7 70 10 37 5 107 13 179 20 24 2 62 7 85 10 22 3 57 7 76 10 19 3
58 7 85 10 28 3 59 7 70 9 11 2 49 7 85 10 36 4 79 9 95 11 17 2 59 7 95 10
35 4 71 8 80 10 9 2 48 6 87 10 l71 6 6 -28 c4 -15 9 -41 11 -58 3 -16 8 -41
10 -55 10 -49 19 -100 41 -245 12 -84 14 -115 18 -288 2 -97 -1 -199 -6 -225
-4 -26 -11 -60 -14 -77 -16 -97 -80 -243 -135 -310 -61 -75 -170 -172 -259
-231 -54 -35 -103 -64 -109 -64 -6 0 -11 -4 -11 -10 0 -5 -8 -10 -18 -10 -28
0 -95 -66 -88 -87 2 -10 12 -47 21 -83 9 -36 19 -72 22 -80 3 -8 7 -22 8 -30
1 -8 7 -36 15 -61 16 -54 47 -76 100 -73 19 2 82 5 140 8 58 3 143 8 190 11
47 3 132 8 190 10 58 3 141 7 185 10 44 2 132 7 195 10 63 3 153 8 200 11 47
2 123 6 170 9 47 2 130 6 185 10 104 5 203 11 390 20 61 3 139 8 175 10 36 2
119 6 185 10 66 3 152 8 190 10 39 2 122 6 185 10 63 3 151 8 195 11 44 2 105
6 136 7 51 3 63 9 129 60 88 69 91 73 119 167 12 41 30 104 41 140 11 36 20
68 20 72 1 4 7 26 15 48 8 22 15 42 15 45 0 3 2 10 5 17 8 25 126 433 130 448
2 8 4 15 5 15 1 0 3 7 5 15 2 8 24 87 50 175 26 88 53 180 60 205 7 25 34 117
60 205 26 88 48 165 49 170 2 6 6 17 9 25 3 8 13 40 21 70 14 54 35 124 55
188 5 17 7 32 4 32 -3 0 -1 6 5 13 8 9 22 55 27 87 0 3 11 39 24 80 47 152 63
205 66 220 6 26 56 194 62 210 3 8 8 24 10 35 2 11 10 40 17 65 44 144 98 327
102 345 1 6 15 55 32 110 31 100 121 407 128 435 2 8 31 107 64 220 34 113 73
246 87 295 13 50 27 97 30 105 4 8 7 20 9 25 9 39 44 155 52 175 5 14 10 27
10 30 0 4 14 56 28 105 17 56 29 103 64 245 22 91 43 172 47 180 3 8 7 22 8
30 2 18 63 238 72 260 4 8 7 17 7 20 7 29 67 199 103 290 82 205 223 457 320
567 15 18 35 42 44 53 44 56 161 169 254 245 20 17 42 35 48 40 7 6 28 22 47
35 19 13 37 27 40 30 3 3 52 37 110 75 105 68 123 83 114 96 -2 4 0 10 5 14 6
3 2 29 -10 63 -11 31 -19 57 -18 57 1 0 -8 34 -20 75 -12 41 -25 83 -27 93
-11 36 -51 44 -224 40 -275 -5 -1141 -18 -1930 -29 -413 -5 -614 -9 -652 -13
-15 -1 -78 -101 -64 -101 2 0 -7 -30 -21 -67 -13 -38 -26 -72 -27 -78 -2 -5
-6 -17 -9 -25 -7 -17 -10 -39 -8 -57 0 -7 28 -39 61 -73 51 -52 152 -185 141
-185 -2 0 5 -18 16 -40 25 -49 59 -158 68 -216 4 -24 8 -46 10 -49 7 -11 19
-177 18 -260 0 -86 -11 -285 -17 -317 -2 -10 -7 -40 -10 -68 -20 -149 -58
-352 -102 -540 -8 -33 -16 -69 -18 -81 -1 -11 -6 -25 -9 -31 -3 -5 -8 -23 -11
-39 -3 -16 -15 -65 -27 -109 -12 -44 -23 -87 -24 -95 -1 -8 -5 -22 -8 -30 -9
-23 -29 -90 -31 -103 -1 -7 -7 -28 -13 -47 -7 -19 -24 -75 -38 -125 -15 -49
-40 -132 -57 -183 -16 -51 -31 -98 -32 -105 -2 -7 -6 -19 -9 -27 -3 -8 -19
-58 -36 -110 -68 -209 -219 -655 -248 -730 -3 -8 -7 -19 -9 -25 -1 -5 -19 -55
-39 -110 -20 -55 -55 -151 -76 -214 -22 -63 -43 -119 -47 -125 -3 -6 -7 -15
-8 -21 -3 -16 -73 -208 -78 -212 -4 -4 -15 25 -21 56 -2 9 -4 16 -5 16 -1 0
-3 9 -5 20 -2 11 -20 81 -40 155 -39 147 -43 161 -49 188 -6 27 -26 100 -39
147 -6 22 -12 44 -13 50 0 5 -2 12 -3 15 -2 3 -4 13 -6 23 -2 10 -15 64 -30
120 -15 56 -29 112 -31 123 -2 12 -18 75 -35 140 -31 120 -35 137 -44 186 -3
15 -9 38 -15 52 -5 15 -7 26 -4 26 4 0 1 6 -5 13 -6 8 -8 16 -6 19 3 3 1 16
-4 30 -5 14 -12 38 -14 54 -3 16 -19 89 -37 162 -26 113 -39 173 -76 347 -10
50 -25 122 -29 143 -2 13 -6 31 -9 40 -3 9 -7 35 -10 57 -4 22 -8 51 -11 65
-3 14 -8 36 -10 50 -6 32 -26 149 -30 175 -2 11 -6 38 -10 60 -4 22 -9 54 -10
70 -2 17 -4 30 -5 30 -1 0 -3 16 -6 35 -2 19 -9 69 -14 110 -6 41 -13 100 -16
130 -3 30 -7 69 -9 85 -22 158 -23 608 -1 721 3 12 7 37 10 55 26 155 101 360
154 417 6 7 12 17 12 22 0 14 158 168 179 175 12 3 21 11 21 16 0 5 4 9 9 9 5
0 37 16 71 35 34 19 73 38 86 41 38 10 55 51 39 97 -7 20 -11 37 -10 37 2 0
-12 45 -31 101 -19 55 -34 107 -34 115 0 7 -12 20 -27 27 -25 13 -41 11 -153
-15z m-567 -560 c-38 -51 -151 -398 -141 -436 1 -4 -1 -21 -5 -37 -40 -168
-41 -603 -1 -950 3 -27 8 -68 10 -90 2 -22 6 -53 9 -70 3 -16 8 -48 10 -70 4
-36 11 -84 21 -140 2 -11 5 -33 8 -50 9 -57 25 -150 41 -235 9 -47 18 -96 20
-110 2 -14 7 -36 10 -50 3 -14 7 -37 10 -53 3 -15 12 -60 21 -100 21 -99 23
-105 34 -162 5 -27 21 -99 35 -160 15 -60 28 -119 30 -130 12 -60 26 -121 41
-177 9 -35 17 -70 19 -78 3 -14 21 -92 31 -132 2 -10 6 -26 8 -35 2 -10 18
-73 35 -140 17 -67 33 -132 35 -145 3 -12 5 -23 6 -23 2 0 5 -12 13 -50 3 -11
12 -47 21 -80 19 -66 24 -89 30 -122 3 -13 7 -26 10 -31 3 -5 7 -19 9 -33 9
-44 85 -333 96 -361 6 -16 9 -28 6 -28 -2 0 5 -30 16 -67 11 -38 22 -79 25
-93 3 -14 9 -41 14 -60 5 -19 9 -37 9 -40 0 -3 5 -18 11 -35 11 -28 14 -38 24
-83 2 -9 9 -37 16 -62 7 -25 12 -46 12 -47 -1 -2 4 -17 9 -35 18 -60 41 -143
43 -158 4 -26 24 -68 38 -77 14 -9 22 -9 201 -18 72 -3 124 -2 136 5 17 8 56
92 66 140 2 8 12 35 22 60 11 25 32 81 48 125 15 44 32 91 38 105 6 14 11 27
12 30 1 3 4 12 8 20 3 8 20 56 37 105 17 50 38 106 45 125 8 19 35 94 60 165
25 72 58 162 72 200 58 159 71 196 177 500 55 161 198 586 201 600 1 5 12 44
25 85 14 41 25 77 25 80 1 3 4 12 7 20 27 70 146 487 189 660 11 47 23 92 25
100 18 69 83 366 89 410 2 14 6 40 9 58 11 58 15 86 21 137 4 28 9 64 12 80
29 169 33 580 8 695 -3 14 -8 41 -10 60 -12 97 -66 274 -111 363 l-24 47 47 1
c27 0 152 2 278 4 416 6 1148 17 1268 19 64 1 117 -1 117 -4 0 -3 -37 -44 -82
-90 -83 -87 -203 -233 -249 -305 -14 -22 -37 -58 -52 -80 -73 -113 -160 -290
-235 -480 -47 -120 -117 -327 -114 -338 1 -4 -2 -16 -7 -26 -11 -19 -108 -376
-117 -426 -2 -16 -7 -38 -10 -47 -3 -9 -6 -25 -8 -35 -2 -10 -25 -90 -51 -178
-26 -88 -49 -167 -50 -175 -2 -8 -4 -16 -5 -17 -2 -2 -4 -7 -5 -13 -1 -5 -3
-12 -4 -15 0 -3 -2 -8 -2 -12 -1 -5 -6 -19 -11 -33 -5 -14 -11 -32 -13 -40 -6
-22 -27 -95 -80 -275 -26 -88 -48 -167 -50 -175 -2 -8 -10 -34 -19 -58 -8 -23
-16 -46 -16 -50 0 -4 -6 -25 -12 -47 -6 -22 -12 -42 -13 -45 -1 -3 -7 -25 -14
-50 -7 -25 -23 -80 -36 -122 -14 -43 -27 -88 -30 -100 -2 -13 -21 -77 -41
-143 -19 -66 -37 -128 -39 -138 -2 -9 -6 -21 -9 -25 -3 -5 -7 -19 -10 -33 -2
-13 -11 -43 -20 -66 -8 -24 -13 -43 -9 -43 3 0 1 -6 -5 -12 -6 -7 -11 -17 -11
-23 -2 -17 -21 -85 -51 -185 -60 -202 -121 -411 -125 -428 -2 -9 -21 -75 -43
-147 -52 -174 -83 -278 -86 -290 -12 -45 -28 -103 -33 -115 -3 -8 -7 -19 -8
-25 -2 -5 -15 -50 -30 -100 -14 -49 -28 -97 -30 -105 -2 -8 -4 -15 -5 -15 -1
0 -3 -8 -6 -18 -2 -9 -6 -25 -8 -35 -3 -9 -5 -18 -6 -19 -2 -2 -3 -6 -4 -10
-7 -25 -36 -124 -93 -318 -36 -121 -74 -251 -84 -290 -11 -38 -36 -122 -55
-185 -20 -63 -38 -126 -40 -139 -3 -14 -7 -28 -10 -33 -5 -7 -7 -17 -17 -63
-2 -5 -5 -15 -9 -20 -3 -6 -9 -27 -13 -48 -9 -44 -16 -50 -70 -53 -42 -3 -246
-13 -375 -19 -41 -2 -120 -7 -175 -10 -99 -6 -153 -9 -370 -19 -60 -3 -148 -8
-195 -11 -92 -6 -234 -14 -370 -20 -47 -2 -130 -6 -185 -10 -55 -3 -145 -8
-200 -10 -55 -3 -137 -8 -182 -10 -46 -3 -83 -3 -83 -1 0 3 6 11 14 19 27 27
115 164 140 219 47 102 92 245 102 323 1 11 6 45 10 75 11 72 11 384 1 480 -5
41 -10 91 -12 110 -2 19 -6 49 -8 65 -3 17 -9 50 -12 75 -4 25 -9 54 -12 65
-2 11 -6 31 -8 45 -19 111 -66 330 -79 367 -9 27 -206 170 -218 158 -2 -2 -32
-6 -68 -10 -36 -3 -76 -8 -90 -10 -14 -3 -50 -7 -80 -11 -30 -3 -66 -7 -80 -9
-14 -2 -50 -6 -80 -9 -30 -3 -64 -7 -75 -10 -11 -2 -49 -7 -85 -10 -70 -8 -88
-10 -165 -20 -27 -4 -72 -9 -100 -12 -54 -5 -70 -7 -161 -19 -32 -4 -70 -9
-84 -10 -47 -5 -155 -17 -180 -20 -32 -5 -115 -15 -160 -19 -19 -3 -55 -7 -80
-10 -25 -3 -64 -8 -87 -11 -24 -3 -62 -7 -85 -10 -24 -3 -61 -8 -83 -10 -119
-12 -151 -16 -165 -20 -8 -2 -44 -6 -80 -10 -36 -3 -74 -7 -85 -9 -11 -2 -47
-7 -80 -10 -33 -4 -80 -9 -105 -13 -25 -3 -61 -7 -80 -8 -19 -2 -35 -4 -35 -5
0 -1 -16 -3 -35 -5 -19 -1 -56 -5 -83 -9 -26 -3 -68 -9 -95 -12 -94 -11 -108
-15 -170 -53 -53 -32 -71 -51 -117 -124 -82 -129 -141 -251 -169 -348 -77
-266 -48 -474 107 -751 21 -36 44 -72 52 -78 8 -7 15 -18 15 -25 0 -8 4 -15 9
-17 5 -1 11 -10 13 -18 2 -11 -9 -15 -47 -16 -27 -1 -99 -5 -160 -8 -109 -7
-228 -12 -440 -21 -60 -2 -155 -7 -210 -9 -98 -5 -211 -11 -430 -21 -60 -2
-157 -7 -215 -10 -181 -9 -310 -15 -468 -21 -84 -3 -161 -7 -170 -9 -34 -5
-30 6 20 53 70 65 133 132 213 227 37 44 78 92 91 107 13 15 24 32 24 37 0 5
3 11 8 13 15 6 182 244 182 258 0 6 4 10 10 10 5 0 16 16 25 35 9 19 23 39 31
46 8 6 14 17 14 25 0 7 6 19 13 26 7 7 47 69 87 138 41 69 77 127 80 130 3 3
16 28 30 55 14 28 28 52 33 53 4 2 7 7 7 11 0 4 26 54 58 112 122 219 561
1084 567 1119 1 3 20 43 42 90 43 91 81 171 200 425 90 190 142 301 213 450
29 61 68 143 87 184 19 40 59 125 89 188 29 62 54 115 54 117 0 2 23 52 50
110 28 58 50 108 50 110 0 3 16 39 36 82 19 42 51 116 71 163 19 47 41 100 48
116 25 55 103 279 134 385 32 107 34 118 51 205 6 28 12 61 15 75 16 80 22
282 10 365 -13 100 -68 289 -86 301 -5 3 -7 10 -4 15 4 5 1 9 -4 9 -6 0 -11 6
-11 13 0 16 -111 188 -134 206 -26 22 -6 27 86 21 95 -7 982 -4 1103 3 85 5
253 17 320 22 22 2 76 6 120 9 44 4 96 8 115 10 19 3 58 8 86 11 49 6 81 10
173 19 52 5 138 17 166 22 11 2 40 6 65 9 25 3 55 8 67 10 12 3 40 7 62 10 23
3 119 19 214 35 184 32 181 31 302 56 44 9 91 18 105 20 26 3 60 10 88 18 9 3
33 7 52 10 19 4 60 12 90 19 60 15 68 14 53 -5z"/>
<path d="M4868 7525 c-12 -14 -33 -51 -46 -83 -13 -31 -34 -81 -47 -109 -14
-29 -27 -64 -31 -78 -3 -14 -10 -25 -15 -25 -5 0 -9 -8 -9 -18 0 -10 -3 -22
-7 -26 -5 -4 -8 -11 -9 -14 0 -4 -8 -24 -17 -44 -9 -20 -41 -92 -71 -160 -67
-156 -95 -218 -106 -243 -5 -11 -57 -130 -116 -265 -58 -135 -114 -263 -124
-285 -24 -53 -53 -119 -55 -125 -4 -12 -165 -381 -185 -425 -56 -123 -78 -175
-73 -175 3 0 1 -6 -5 -12 -14 -18 -143 -312 -144 -328 0 -3 -6 -16 -14 -30
-15 -28 -104 -228 -104 -234 0 -3 -14 -35 -32 -73 -32 -68 -42 -138 -22 -151
6 -4 35 -41 64 -82 64 -89 100 -134 100 -125 0 4 6 2 13 -4 8 -6 16 -9 18 -7
2 2 38 7 79 11 78 6 121 11 205 19 28 3 82 8 120 11 39 3 84 8 100 10 17 2 62
7 100 10 39 4 86 9 105 11 19 2 64 6 100 9 36 3 81 7 100 10 19 2 64 7 100 10
36 3 81 8 100 10 19 3 64 7 100 10 36 3 81 8 100 10 19 2 67 7 105 10 39 4 88
8 110 10 22 2 65 6 95 9 30 3 82 9 115 12 33 4 74 8 90 9 33 3 143 14 188 20
35 4 58 24 83 70 10 19 21 35 25 35 4 0 12 14 19 30 7 17 16 30 20 30 4 0 16
17 26 38 18 37 20 74 7 95 -4 7 -9 21 -10 31 -2 11 -10 38 -17 60 -7 23 -24
75 -36 116 -12 41 -33 108 -46 149 -13 40 -24 81 -24 90 0 9 -5 22 -12 29 -7
7 -9 12 -5 12 4 0 1 14 -8 30 -9 17 -13 30 -11 30 3 0 -2 19 -10 43 -9 23 -17
49 -19 57 -3 13 -18 66 -85 285 -10 33 -32 105 -48 160 -17 55 -42 138 -57
185 -15 47 -28 90 -29 95 -1 6 -11 37 -21 70 -10 33 -20 65 -21 70 -1 6 -12
42 -24 80 -11 39 -22 75 -24 80 -11 37 -30 101 -31 105 -1 3 -5 13 -9 22 -4 9
-8 22 -10 30 -1 7 -5 19 -9 26 -5 6 -6 12 -3 12 3 0 -2 19 -10 43 -9 23 -17
49 -19 57 -4 17 -58 199 -126 418 -11 37 -23 76 -26 87 -2 11 -7 27 -11 35 -8
22 -9 28 -11 48 -1 9 -11 29 -24 45 -20 25 -30 28 -102 32 -44 3 -115 8 -157
11 -74 5 -78 4 -100 -21z m166 -740 c10 -33 19 -64 21 -70 1 -5 5 -17 8 -25 3
-8 8 -24 10 -35 3 -11 14 -49 25 -85 11 -36 50 -162 86 -280 35 -118 71 -235
79 -260 7 -25 14 -48 16 -52 1 -4 4 -13 6 -20 7 -21 77 -252 79 -263 1 -5 13
-44 25 -85 56 -181 110 -358 119 -390 6 -19 24 -80 41 -135 17 -54 28 -101 26
-103 -2 -3 -26 -6 -52 -8 -26 -2 -66 -6 -88 -8 -22 -2 -69 -7 -105 -10 -36 -4
-86 -9 -112 -11 -27 -3 -69 -7 -95 -10 -163 -17 -250 -25 -318 -30 -27 -2 -50
-5 -50 -6 0 0 -13 -2 -30 -4 -16 -1 -64 -6 -105 -10 -41 -3 -95 -8 -120 -10
-25 -3 -70 -7 -100 -11 -30 -3 -71 -7 -90 -9 -19 -1 -68 -6 -107 -9 -40 -4
-73 -4 -73 1 0 7 143 339 190 440 11 24 20 45 20 47 0 3 13 33 29 68 16 35 49
110 74 168 25 58 56 128 68 155 12 28 23 52 24 55 4 11 120 278 155 355 24 53
53 119 55 125 1 3 8 19 15 35 7 17 14 32 15 35 5 14 27 67 35 85 34 74 94 209
140 317 30 70 58 124 61 120 3 -4 13 -34 23 -67z"/>
</g>
</svg>
