<svg viewBox="0 0 325 103" fill="none" xmlns="http://www.w3.org/2000/svg">
    <path fill-rule="evenodd" clip-rule="evenodd"
          d="M138 5L103.5 5.5C113.446 13.4693 106.697 33.2199 93.5 69C82.2234 26.9712 77.6774 7.44718 92 2C69.7036 7.55186 57.1278 8.98742 34.5 7.5C46.719 15.7093 43.6772 22.1324 33.8968 42.7844C32.8397 45.0167 31.7038 47.4151 30.5 50C17.6665 77.5569 11.158 86.662 1 89.5L44 87.5C37.651 80.7223 36.1765 76.8991 41 70L74.5 66C77.9937 81.0302 76.4302 86.6823 67 91.5L104.5 89.5L121.5 31.5C124.887 16.6246 128.54 10.8445 138 5ZM62.4619 27.5593L48.9619 58.0593L71.4619 55.5593L62.4619 27.5593Z"
          fill="#FABB18"/>
    <path
        d="M103.5 5.5L103.471 3.50021L102.249 7.06079L103.5 5.5ZM138 5L139.051 6.70146L137.971 3.00021L138 5ZM93.5 69L91.5683 69.5183L95.3764 69.6921L93.5 69ZM92 2L92.711 3.86937L91.5168 0.0592604L92 2ZM34.5 7.5L34.6312 5.50431L33.3847 9.16012L34.5 7.5ZM33.8968 42.7844L35.7043 43.6405L35.7043 43.6405L33.8968 42.7844ZM30.5 50L28.687 49.1557L28.687 49.1557L30.5 50ZM1 89.5L0.461833 87.5738L1.09292 91.4978L1 89.5ZM44 87.5L44.0929 89.4978L45.4596 86.1327L44 87.5ZM41 70L40.7629 68.0141L39.3609 68.854L41 70ZM74.5 66L76.4481 65.5472L74.2629 64.0141L74.5 66ZM67 91.5L66.0901 89.719L67.1065 93.4972L67 91.5ZM104.5 89.5L104.607 91.4972L106.419 90.0625L104.5 89.5ZM121.5 31.5L123.419 32.0625L123.45 31.944L121.5 31.5ZM48.9619 58.0593L47.1331 57.2498L49.1828 60.047L48.9619 58.0593ZM62.4619 27.5593L64.366 26.9472L60.6331 26.7498L62.4619 27.5593ZM71.4619 55.5593L71.6828 57.547L73.366 54.9472L71.4619 55.5593ZM62.5 24L64.414 23.42L60.6671 23.1997L62.5 24ZM47 59.5L45.1671 58.6997L47.1951 61.4905L47 59.5ZM72.5 57L72.6951 58.9905L74.414 56.42L72.5 57ZM103.529 7.49979L138.029 6.99979L137.971 3.00021L103.471 3.50021L103.529 7.49979ZM95.3764 69.6921C101.956 51.8526 107.008 37.8072 109.139 27.2154C111.245 16.749 110.697 8.70408 104.751 3.93921L102.249 7.06079C106.249 10.2652 107.299 16.0802 105.218 26.4265C103.162 36.6474 98.2406 50.3673 91.6236 68.3079L95.3764 69.6921ZM91.289 0.130631C87.2426 1.66957 84.4136 4.27643 82.7715 8.06029C81.1737 11.7422 80.768 16.3812 81.1551 21.9213C81.9275 32.9739 85.9499 48.5779 91.5683 69.5183L95.4317 68.4817C89.7735 47.3933 85.8846 32.2209 85.1454 21.6425C84.7768 16.3671 85.2153 12.4769 86.4409 9.65268C87.6223 6.93036 89.5961 5.05402 92.711 3.86937L91.289 0.130631ZM34.3688 9.49569C57.2277 10.9983 70.0116 9.53623 92.4832 3.94074L91.5168 0.0592604C69.3956 5.56749 57.0279 6.97654 34.6312 5.50431L34.3688 9.49569ZM35.7043 43.6405C38.1407 38.4959 40.1934 34.1631 41.6896 30.4628C43.1812 26.7739 44.1865 23.5575 44.4406 20.6503C44.7009 17.6716 44.1725 15.0141 42.639 12.5236C41.1439 10.0955 38.7771 7.96407 35.6153 5.83988L33.3847 9.16012C36.3324 11.1406 38.1675 12.8905 39.233 14.6209C40.2601 16.2891 40.6511 18.0673 40.4558 20.302C40.2542 22.6083 39.4289 25.383 37.9813 28.9634C36.5382 32.5323 34.5431 36.747 32.0892 41.9284L35.7043 43.6405ZM32.313 50.8443C33.5137 48.2661 34.647 45.8732 35.7043 43.6405L32.0892 41.9284C31.0324 44.1601 29.8939 46.5641 28.687 49.1557L32.313 50.8443ZM1.53817 91.4262C7.15185 89.8578 11.6624 86.5425 16.3537 80.2101C20.9882 73.9544 25.8972 64.6209 32.313 50.8443L28.687 49.1557C22.2693 62.936 17.5073 71.9335 13.1396 77.829C8.82879 83.6479 5.00611 86.3041 0.461833 87.5738L1.53817 91.4262ZM43.9071 85.5022L0.907077 87.5022L1.09292 91.4978L44.0929 89.4978L43.9071 85.5022ZM39.3609 68.854C36.8109 72.5012 35.6291 75.7568 36.3529 79.2063C37.0386 82.4736 39.3716 85.4846 42.5404 88.8673L45.4596 86.1327C42.2794 82.7377 40.7007 80.4482 40.2677 78.3848C39.8729 76.5034 40.3655 74.3979 42.6391 71.146L39.3609 68.854ZM74.2629 64.0141L40.7629 68.0141L41.2371 71.9859L74.7371 67.9859L74.2629 64.0141ZM67.9099 93.281C72.871 90.7465 76.167 87.7778 77.5168 83.1384C78.8077 78.7018 78.1985 73.0775 76.4481 65.5472L72.5519 66.4528C74.2953 73.9527 74.6512 78.6696 73.6761 82.021C72.76 85.1697 70.5591 87.4358 66.0901 89.719L67.9099 93.281ZM104.393 87.5028L66.8935 89.5028L67.1065 93.4972L104.607 91.4972L104.393 87.5028ZM119.581 30.9375L102.581 88.9375L106.419 90.0625L123.419 32.0625L119.581 30.9375ZM136.949 3.29854C132.049 6.3256 128.507 9.42999 125.776 13.8043C123.078 18.1266 121.258 23.5523 119.55 31.056L123.45 31.944C125.129 24.5723 126.829 19.6703 129.169 15.9226C131.477 12.2268 134.491 9.51889 139.051 6.70146L136.949 3.29854ZM50.7908 58.8688L64.2908 28.3688L60.6331 26.7498L47.1331 57.2498L50.7908 58.8688ZM71.2411 53.5715L48.7411 56.0715L49.1828 60.047L71.6828 57.547L71.2411 53.5715ZM60.5579 28.1713L69.5579 56.1713L73.366 54.9472L64.366 26.9472L60.5579 28.1713ZM60.6671 23.1997L45.1671 58.6997L48.8329 60.3003L64.3329 24.8003L60.6671 23.1997ZM47.1951 61.4905L72.6951 58.9905L72.3049 55.0095L46.8049 57.5095L47.1951 61.4905ZM74.414 56.42L64.414 23.42L60.586 24.58L70.586 57.58L74.414 56.42Z"
        fill="black"/>
    <path
        d="M137.792 63.204C137.792 63.5107 137.715 64.354 137.562 65.734C137.225 69.1073 137.056 72.5267 137.056 75.992C137.056 79.028 137.102 81.3433 137.194 82.938C137.286 84.5327 137.516 85.7593 137.884 86.618C138.252 87.446 138.819 87.86 139.586 87.86C141.058 87.86 141.794 88.3507 141.794 89.332C141.794 89.976 141.472 90.528 140.828 90.988C140.184 91.4173 139.479 91.632 138.712 91.632C137.792 91.632 136.933 91.4173 136.136 90.988C135.339 90.5587 134.71 89.8993 134.25 89.01C133.606 89.9607 132.671 90.7273 131.444 91.31C130.248 91.862 129.083 92.138 127.948 92.138C126.2 92.138 124.651 91.77 123.302 91.034C121.953 90.298 120.91 89.3013 120.174 88.044C119.438 86.756 119.07 85.3453 119.07 83.812C119.07 82.34 119.239 80.9293 119.576 79.58C119.944 78.2 120.435 77.0653 121.048 76.176C121.876 75.0107 122.98 74.0907 124.36 73.416C125.771 72.7107 127.151 72.358 128.5 72.358C129.328 72.358 130.11 72.5267 130.846 72.864C131.582 73.1707 132.226 73.554 132.778 74.014C132.778 71.9593 132.763 70.6713 132.732 70.15V69.184C132.732 66.332 132.916 64.2467 133.284 62.928C133.621 61.64 134.434 60.996 135.722 60.996C136.427 60.996 136.949 61.1493 137.286 61.456C137.623 61.7627 137.792 62.3453 137.792 63.204ZM123.624 83.72C123.624 85.1307 124.023 86.2653 124.82 87.124C125.648 87.9827 126.629 88.412 127.764 88.412C129.389 88.412 130.585 87.906 131.352 86.894C132.149 85.882 132.548 84.5787 132.548 82.984L132.502 78.43C131.306 77.1113 130.064 76.452 128.776 76.452C127.887 76.452 127.043 76.682 126.246 77.142C125.479 77.5713 124.866 78.2307 124.406 79.12C123.885 80.132 123.624 81.6653 123.624 83.72ZM165.749 89.792C165.749 90.4667 165.381 91.034 164.645 91.494C163.94 91.954 163.28 92.184 162.667 92.184C161.502 92.184 160.566 92.046 159.861 91.77C159.186 91.4633 158.558 90.9113 157.975 90.114C157.178 90.8193 156.089 91.356 154.709 91.724C153.329 92.0613 152.056 92.23 150.891 92.23C148.99 92.23 147.426 91.724 146.199 90.712C144.972 89.6693 144.359 88.1513 144.359 86.158C144.359 85.2993 144.589 84.5173 145.049 83.812C145.509 83.076 146.138 82.432 146.935 81.88C147.824 81.2973 148.836 80.8527 149.971 80.546C151.106 80.2087 152.286 80.04 153.513 80.04C154.157 80.04 154.924 80.1627 155.813 80.408C156.702 80.6533 157.392 80.914 157.883 81.19V80.454C157.883 78.798 157.484 77.6633 156.687 77.05C155.89 76.406 154.602 76.084 152.823 76.084C152.302 76.084 151.78 76.1913 151.259 76.406C150.768 76.6207 150.201 76.912 149.557 77.28C148.698 77.74 147.886 77.97 147.119 77.97C146.843 77.97 146.582 77.786 146.337 77.418C146.092 77.0193 145.969 76.6667 145.969 76.36C145.969 75.4707 146.383 74.704 147.211 74.06C148.07 73.416 149.082 72.9407 150.247 72.634C151.412 72.2967 152.455 72.128 153.375 72.128C154.295 72.128 155.353 72.312 156.549 72.68C157.745 73.0173 158.726 73.4927 159.493 74.106C160.413 74.9033 161.118 75.8387 161.609 76.912C162.13 77.9547 162.391 79.1047 162.391 80.362C162.391 80.7607 162.36 81.3587 162.299 82.156C162.238 83.0147 162.207 83.7507 162.207 84.364C162.207 84.64 162.176 85.054 162.115 85.606C162.054 86.2807 162.023 86.8173 162.023 87.216C162.023 87.584 162.161 87.906 162.437 88.182C162.713 88.4273 163.035 88.55 163.403 88.55L164.691 88.504C165.028 88.504 165.289 88.6267 165.473 88.872C165.657 89.1173 165.749 89.424 165.749 89.792ZM150.937 88.596C152.256 88.596 153.36 88.458 154.249 88.182C155.138 87.906 156.212 87.4 157.469 86.664C157.592 86.1427 157.668 85.4527 157.699 84.594C156.012 83.7967 154.617 83.398 153.513 83.398C152.256 83.398 151.136 83.628 150.155 84.088C149.174 84.548 148.683 85.3607 148.683 86.526C148.683 87.1087 148.928 87.5993 149.419 87.998C149.91 88.3967 150.416 88.596 150.937 88.596ZM181.687 82.064C181.932 82.2173 182.408 82.5087 183.113 82.938C183.849 83.3367 184.34 83.812 184.585 84.364C184.83 84.916 184.953 85.6827 184.953 86.664C184.953 87.768 184.631 88.7493 183.987 89.608C183.343 90.436 182.515 91.08 181.503 91.54C180.798 91.8467 180.031 92.0307 179.203 92.092C178.406 92.1533 177.44 92.184 176.305 92.184C175.692 92.184 174.894 92.092 173.913 91.908C172.962 91.724 172.303 91.5553 171.935 91.402C170.954 90.85 170.126 90.206 169.451 89.47C168.776 88.734 168.439 87.9827 168.439 87.216C168.439 86.6027 168.638 86.112 169.037 85.744C169.436 85.376 169.957 85.192 170.601 85.192C170.938 85.192 171.26 85.284 171.567 85.468C171.904 85.6213 172.134 85.8053 172.257 86.02C172.594 86.8173 173.162 87.4153 173.959 87.814C174.756 88.2127 175.569 88.412 176.397 88.412C179.31 88.412 180.767 87.8907 180.767 86.848C180.767 86.572 180.69 86.3573 180.537 86.204C180.414 86.02 180.23 85.836 179.985 85.652C179.586 85.376 179.019 85.0847 178.283 84.778C177.578 84.4713 176.949 84.2413 176.397 84.088C175.14 83.812 173.913 83.398 172.717 82.846C171.613 82.294 170.708 81.5733 170.003 80.684C169.298 79.764 168.945 78.6447 168.945 77.326C168.945 76.5287 169.236 75.7467 169.819 74.98C170.432 74.1827 171.138 73.5847 171.935 73.186C172.487 72.9713 173.392 72.7413 174.649 72.496C175.906 72.2507 176.765 72.128 177.225 72.128C177.93 72.128 178.697 72.2047 179.525 72.358C180.353 72.4807 180.982 72.6953 181.411 73.002C182.239 73.4927 182.914 74.014 183.435 74.566C183.956 75.0873 184.217 75.6853 184.217 76.36C184.217 76.6973 184.14 77.0653 183.987 77.464C183.834 77.832 183.65 78.062 183.435 78.154C182.975 78.3687 182.438 78.476 181.825 78.476C181.549 78.476 181.319 78.3993 181.135 78.246C180.982 78.0927 180.767 77.8473 180.491 77.51C180.154 76.9887 179.832 76.682 179.525 76.59C179.157 76.498 178.62 76.3907 177.915 76.268C177.21 76.1147 176.734 76.038 176.489 76.038C175.722 76.038 174.986 76.1913 174.281 76.498C173.606 76.8047 173.269 77.2187 173.269 77.74C173.269 78.3533 173.775 78.8747 174.787 79.304C175.431 79.6107 176.136 79.8713 176.903 80.086C177.7 80.3007 178.191 80.4387 178.375 80.5C178.804 80.592 179.356 80.8067 180.031 81.144C180.736 81.4813 181.288 81.788 181.687 82.064ZM194.858 62.836C194.858 63.6333 194.842 64.5687 194.812 65.642C194.781 66.6847 194.75 67.482 194.72 68.034C194.628 69.598 194.582 71.162 194.582 72.726C194.582 74.7807 194.628 76.4367 194.72 77.694C195.425 75.946 196.422 74.6273 197.71 73.738C198.998 72.818 200.47 72.358 202.126 72.358C203.26 72.358 204.318 72.864 205.3 73.876C206.281 74.888 206.91 76.0687 207.186 77.418C207.216 77.5713 207.232 77.8013 207.232 78.108C207.232 78.476 207.201 79.0587 207.14 79.856C207.048 80.5 207.002 81.144 207.002 81.788C207.002 83.444 207.063 84.732 207.186 85.652C207.308 86.5413 207.569 87.2773 207.968 87.86C208.366 88.412 208.995 88.8567 209.854 89.194C210.191 89.3167 210.421 89.4853 210.544 89.7C210.697 89.884 210.774 90.1753 210.774 90.574C210.774 91.126 210.482 91.54 209.9 91.816C209.348 92.092 208.811 92.23 208.29 92.23C207.216 92.23 206.25 91.9387 205.392 91.356C204.533 90.7733 203.889 90.0067 203.46 89.056C203.153 88.412 202.954 87.6453 202.862 86.756C202.77 85.8667 202.724 84.824 202.724 83.628L202.77 79.626C202.77 77.4487 202.064 76.36 200.654 76.36C199.642 76.36 198.66 77.188 197.71 78.844C196.759 80.5 195.992 82.4473 195.41 84.686C194.827 86.9247 194.536 88.7647 194.536 90.206C194.536 90.8807 194.321 91.3867 193.892 91.724C193.493 92.0307 193.079 92.184 192.65 92.184C191.975 92.184 191.362 91.9847 190.81 91.586C190.258 91.1567 189.982 90.6813 189.982 90.16C190.196 87.86 190.304 84.0113 190.304 78.614C190.304 77.6327 190.227 73.9987 190.074 67.712L189.936 63.48C189.936 62.8053 190.242 62.2227 190.856 61.732C191.469 61.2107 192.159 60.95 192.926 60.95C193.6 60.95 194.091 61.1033 194.398 61.41C194.704 61.7167 194.858 62.192 194.858 62.836ZM214.878 83.72C214.878 82.0027 214.893 80.6993 214.924 79.81L214.97 75.44C214.97 73.6613 214.924 71.714 214.832 69.598C214.801 68.954 214.694 68.0647 214.51 66.93C214.265 65.2127 214.142 63.9247 214.142 63.066C214.142 61.6553 214.847 60.95 216.258 60.95C217.147 60.95 217.776 61.1953 218.144 61.686C218.543 62.146 218.819 62.882 218.972 63.894C219.279 66.01 219.432 68.494 219.432 71.346C219.432 72.2047 219.401 73.4927 219.34 75.21C219.923 74.29 220.674 73.5693 221.594 73.048C222.545 72.5267 223.48 72.266 224.4 72.266C227.068 72.266 229.368 73.37 231.3 75.578C231.821 76.3447 232.281 77.2647 232.68 78.338C233.109 79.3807 233.324 80.2853 233.324 81.052C233.324 82.4013 233.171 83.6433 232.864 84.778C232.588 85.9127 232.082 87.0167 231.346 88.09C230.61 89.1633 229.675 90.0373 228.54 90.712C227.436 91.3867 226.148 91.724 224.676 91.724C223.388 91.724 222.223 91.4633 221.18 90.942C220.168 90.4207 219.355 89.7307 218.742 88.872C218.589 89.6387 218.251 90.4053 217.73 91.172C217.209 91.908 216.611 92.276 215.936 92.276C215.384 92.276 214.924 92.138 214.556 91.862C214.188 91.5553 214.004 91.1107 214.004 90.528C214.004 90.0987 214.096 89.562 214.28 88.918C214.464 88.0287 214.602 87.216 214.694 86.48C214.817 85.7133 214.878 84.7933 214.878 83.72ZM223.526 87.906C225.029 87.906 226.286 87.3847 227.298 86.342C228.31 85.2687 228.816 83.8273 228.816 82.018C228.816 80.362 228.371 78.936 227.482 77.74C227.175 77.3413 226.731 77.0193 226.148 76.774C225.596 76.5287 225.044 76.406 224.492 76.406C223.204 76.406 222.115 76.7893 221.226 77.556C220.337 78.292 219.831 79.3193 219.708 80.638C219.585 82.4167 219.524 83.95 219.524 85.238C219.892 85.9433 220.444 86.572 221.18 87.124C221.947 87.6453 222.729 87.906 223.526 87.906ZM255.796 77.234C256.042 77.6633 256.241 78.292 256.394 79.12C256.548 79.9173 256.624 80.638 256.624 81.282C256.624 82.11 256.532 83.03 256.348 84.042C256.164 85.054 255.996 85.836 255.842 86.388C253.726 90.252 250.598 92.184 246.458 92.184C244.925 92.184 243.361 91.678 241.766 90.666C240.172 89.654 239.068 88.4887 238.454 87.17C237.626 84.5633 237.212 82.892 237.212 82.156C237.212 80.9293 237.473 79.626 237.994 78.246C238.546 76.866 239.236 75.67 240.064 74.658C240.616 73.9527 241.567 73.3547 242.916 72.864C244.266 72.3427 245.492 72.082 246.596 72.082C248.743 72.082 250.552 72.496 252.024 73.324C253.527 74.1213 254.784 75.4247 255.796 77.234ZM251.794 84.64C251.948 84.3333 252.024 83.306 252.024 81.558C252.024 80.6687 251.856 79.7947 251.518 78.936C251.212 78.0773 250.752 77.3413 250.138 76.728C250.077 76.6667 249.908 76.5747 249.632 76.452C249.356 76.2987 248.973 76.1607 248.482 76.038C248.022 75.8847 247.486 75.808 246.872 75.808C245.155 75.808 243.898 76.498 243.1 77.878C242.303 79.258 241.904 80.822 241.904 82.57C241.904 82.846 241.996 83.4133 242.18 84.272C242.364 85.1307 242.502 85.6827 242.594 85.928C242.84 86.3573 243.33 86.8633 244.066 87.446C244.833 87.998 245.661 88.274 246.55 88.274C247.93 88.274 249.019 87.952 249.816 87.308C250.644 86.6333 251.304 85.744 251.794 84.64ZM281.916 89.792C281.916 90.4667 281.548 91.034 280.812 91.494C280.076 91.954 279.401 92.184 278.788 92.184C277.653 92.184 276.733 92.046 276.028 91.77C275.353 91.4633 274.709 90.9113 274.096 90.114C273.329 90.8193 272.256 91.356 270.876 91.724C269.496 92.0613 268.223 92.23 267.058 92.23C265.156 92.23 263.577 91.724 262.32 90.712C261.093 89.6693 260.48 88.1513 260.48 86.158C260.48 85.2993 260.74 84.4407 261.262 83.582C261.783 82.6927 262.427 81.9873 263.194 81.466C264.022 80.914 264.957 80.546 266 80.362C267.042 80.1473 268.254 80.04 269.634 80.04C270.278 80.04 271.044 80.1627 271.934 80.408C272.823 80.6533 273.528 80.914 274.05 81.19V80.454C274.05 78.798 273.636 77.6633 272.808 77.05C272.01 76.406 270.722 76.084 268.944 76.084C268.392 76.084 267.886 76.176 267.426 76.36C266.996 76.5133 266.49 76.7433 265.908 77.05C265.356 77.3567 264.834 77.51 264.344 77.51C263.914 77.51 263.5 77.3413 263.102 77.004C262.703 76.636 262.504 76.2527 262.504 75.854C262.504 74.566 263.301 73.6307 264.896 73.048C266.521 72.4347 268.177 72.128 269.864 72.128C270.722 72.128 271.704 72.312 272.808 72.68C273.912 73.0173 274.847 73.4927 275.614 74.106C276.534 74.8727 277.239 75.7927 277.73 76.866C278.251 77.9393 278.512 79.1047 278.512 80.362C278.512 80.7607 278.481 81.3587 278.42 82.156C278.358 83.0147 278.328 83.7507 278.328 84.364L278.282 85.606C278.22 86.2807 278.19 86.8173 278.19 87.216C278.19 87.584 278.312 87.906 278.558 88.182C278.834 88.4273 279.156 88.55 279.524 88.55L280.812 88.504C281.149 88.504 281.41 88.642 281.594 88.918C281.808 89.1633 281.916 89.4547 281.916 89.792ZM267.058 88.596C268.376 88.596 269.48 88.458 270.37 88.182C271.259 87.906 272.332 87.4 273.59 86.664C273.712 86.1427 273.789 85.4527 273.82 84.594C272.133 83.7967 270.738 83.398 269.634 83.398C268.591 83.398 267.748 83.444 267.104 83.536C266.46 83.5973 265.877 83.858 265.356 84.318C264.834 84.778 264.574 85.514 264.574 86.526C264.574 87.1087 264.85 87.5993 265.402 87.998C265.984 88.3967 266.536 88.596 267.058 88.596ZM285.069 75.854C284.272 75.302 283.873 74.7193 283.873 74.106C283.873 73.6767 284.057 73.278 284.425 72.91C284.793 72.542 285.345 72.358 286.081 72.358C286.94 72.358 287.707 72.588 288.381 73.048C289.087 73.4773 289.577 74.106 289.853 74.934C290.559 74.106 291.356 73.4467 292.245 72.956C293.165 72.4653 294.101 72.22 295.051 72.22C296.186 72.22 297.213 72.5267 298.133 73.14C299.053 73.7533 299.513 74.5813 299.513 75.624C299.513 76.2067 299.253 76.8047 298.731 77.418C298.241 78.0313 297.735 78.338 297.213 78.338C296.937 78.338 296.692 78.2767 296.477 78.154C296.293 78.0007 296.063 77.786 295.787 77.51C295.481 77.2033 295.22 76.9887 295.005 76.866C294.791 76.7127 294.545 76.636 294.269 76.636C293.779 76.636 293.319 76.7127 292.889 76.866C292.46 77.0193 292.169 77.2033 292.015 77.418C291.525 78.1847 291.157 78.8747 290.911 79.488C290.697 80.1013 290.589 80.7607 290.589 81.466C290.589 81.9873 290.574 82.4013 290.543 82.708L290.497 85.33C290.497 85.7287 290.513 86.1733 290.543 86.664C290.574 87.1547 290.605 87.5227 290.635 87.768C290.727 88.596 290.773 89.3933 290.773 90.16C290.773 90.6813 290.574 91.1413 290.175 91.54C289.777 91.9387 289.286 92.138 288.703 92.138C287.783 92.138 287.109 91.9693 286.679 91.632C286.25 91.264 286.035 90.6047 286.035 89.654L285.989 86.71C285.959 86.1273 285.943 85.2993 285.943 84.226L285.989 81.19C286.051 79.718 286.081 78.522 286.081 77.602C286.081 77.2647 286.005 76.958 285.851 76.682C285.729 76.406 285.468 76.13 285.069 75.854ZM320.579 63.204C320.579 63.5107 320.533 63.894 320.441 64.354C320.41 64.538 320.38 64.7373 320.349 64.952C320.318 65.1667 320.288 65.4273 320.257 65.734C319.981 68.494 319.843 71.9133 319.843 75.992C319.843 79.856 320.012 82.7233 320.349 84.594C320.686 86.4647 321.208 87.584 321.913 87.952L322.787 88.32C323.247 88.4733 323.584 88.642 323.799 88.826C324.044 89.01 324.167 89.3167 324.167 89.746C324.167 90.3593 323.845 90.896 323.201 91.356C322.557 91.7853 321.852 92 321.085 92C320.288 92 319.506 91.678 318.739 91.034C317.972 90.3593 317.344 89.516 316.853 88.504C316.332 89.608 315.412 90.4973 314.093 91.172C312.774 91.816 311.517 92.138 310.321 92.138C309.248 92.138 308.312 92 307.515 91.724C306.718 91.4173 305.89 90.9573 305.031 90.344C303.988 89.608 303.191 88.6727 302.639 87.538C302.118 86.4033 301.857 85.1613 301.857 83.812C301.857 82.4627 302.118 81.0367 302.639 79.534C303.16 78.0007 303.758 76.7433 304.433 75.762C305.23 74.6273 306.288 73.784 307.607 73.232C308.926 72.6493 310.29 72.358 311.701 72.358C312.498 72.358 313.188 72.5113 313.771 72.818C314.354 73.094 314.952 73.4927 315.565 74.014C315.565 72.4807 315.534 71.1927 315.473 70.15C315.442 69.874 315.427 69.552 315.427 69.184C315.427 66.5467 315.642 64.4613 316.071 62.928C316.408 61.64 317.221 60.996 318.509 60.996C319.214 60.996 319.736 61.1493 320.073 61.456C320.41 61.7627 320.579 62.3453 320.579 63.204ZM306.319 83.72C306.319 85.284 306.825 86.48 307.837 87.308C308.297 87.7373 308.68 88.0287 308.987 88.182C309.294 88.3353 309.677 88.412 310.137 88.412C311.026 88.412 311.87 88.1667 312.667 87.676C313.495 87.1547 314.139 86.48 314.599 85.652C315.09 84.824 315.335 83.9347 315.335 82.984L315.289 78.43C314.645 77.694 314.047 77.188 313.495 76.912C312.974 76.6053 312.422 76.452 311.839 76.452C309.876 76.452 308.527 77.2033 307.791 78.706C307.392 79.4113 307.04 80.2087 306.733 81.098C306.457 81.9873 306.319 82.8613 306.319 83.72Z"
        fill="black"/>
    <path d="M166 62L187.5 102" stroke-width="5" stroke="#F7685B"/>
    <path
        d="M184.768 46.636C184.768 47.9853 184.078 48.66 182.698 48.66C182.238 48.66 181.855 48.5527 181.548 48.338C181.241 48.1233 180.904 47.8013 180.536 47.372C179.616 46.36 178.819 45.854 178.144 45.854C177.255 45.854 176.381 46.1147 175.522 46.636C174.694 47.1573 174.019 47.8933 173.498 48.844C172.977 49.7947 172.716 50.8527 172.716 52.018C172.716 53.306 172.961 54.3793 173.452 55.238C173.973 56.0967 174.771 56.8327 175.844 57.446C176.243 57.6607 176.703 57.8293 177.224 57.952C177.776 58.0747 178.251 58.136 178.65 58.136C179.539 58.136 180.659 57.7833 182.008 57.078C182.499 56.8327 182.913 56.6487 183.25 56.526C183.587 56.4033 183.94 56.342 184.308 56.342C184.645 56.342 185.029 56.4953 185.458 56.802C185.887 57.1087 186.102 57.492 186.102 57.952C186.102 58.872 185.673 59.654 184.814 60.298C183.955 60.9113 182.897 61.3867 181.64 61.724C180.413 62.0307 179.233 62.184 178.098 62.184C176.289 62.184 174.602 61.77 173.038 60.942C171.505 60.114 170.278 58.9793 169.358 57.538C168.438 56.066 167.978 54.41 167.978 52.57C167.978 50.6073 168.423 48.8133 169.312 47.188C170.201 45.5627 171.397 44.29 172.9 43.37C174.403 42.45 176.043 41.99 177.822 41.99C178.834 41.99 179.877 42.174 180.95 42.542C182.023 42.91 182.928 43.4467 183.664 44.152C184.4 44.8573 184.768 45.6853 184.768 46.636Z"
        fill="black"/>
</svg>
